<svg xmlns="http://www.w3.org/2000/svg" viewBox="0 0 161.37 149.68"><g id="레이어_2" data-name="레이어 2"><g id="레이어_1-2" data-name="레이어 1"><path d="M35.21,55.23a5.56,5.56,0,1,0,5.56,5.56,5.55,5.55,0,0,0-5.56-5.56"/><path d="M90.1,54.65a6,6,0,1,0,6,6,6,6,0,0,0-6-6"/><path d="M139.79,0H21.58A21.58,21.58,0,0,0,0,21.58V91.74a21.59,21.59,0,0,0,21.58,21.59H63.33l14.2,33.45s1,2.9,3.35,2.9h0c2.36,0,3.34-2.9,3.34-2.9l14.2-33.45h41.37a21.59,21.59,0,0,0,21.58-21.59V21.58A21.58,21.58,0,0,0,139.79,0M50.7,62C50.63,74.83,37.37,75.2,37.37,75.2a11.06,11.06,0,0,1-8-3.4v2.31H19.69V34.29s0,0,0,0v0c.6.1,9.66,0,9.66,0V49.5c2.27-3.87,8.84-3.81,8.84-3.81C52.49,47,50.7,62,50.7,62m17-15.1V74.18H58.24v-27c0-3.67-4.55-4.69-4.55-4.69V33c15.1.61,14,13.93,14,13.93M90.1,75.22c-8.75,0-15.84-6.53-15.84-14.58S81.35,46.05,90.1,46.05s15.84,6.53,15.84,14.59S98.85,75.22,90.1,75.22m51.78,0s.13,13.85-13.94,13.85h-4.28v-9h2.58s5.91.54,5.85-8.57c0,0-1.16,3.69-9.45,3.69,0,0-11.77-.85-11.77-12.32V58.54s.28-11.9,13.19-12.85a9.64,9.64,0,0,1,8.23,3.67V46.44h9.59Z"/><path d="M126.85,54.79a5.85,5.85,0,1,0,5.85,5.84,5.84,5.84,0,0,0-5.85-5.84"/></g></g></svg>