<svg xmlns="http://www.w3.org/2000/svg" viewBox="0 0 467.88 413.69"><defs><style>.cls-1{fill:#4169e1;}</style></defs><g id="Layer_2" data-name="Layer 2"><g id="Objects"><path class="cls-1" d="M462.21,38.58c-91.07,100-176.56,218.11-243.56,336.63a75.55,75.55,0,0,1-68.94,38.41l-.76,0a75.09,75.09,0,0,1-64.5-42c-21.31-43.64-51.9-90-79.19-128.93a29.22,29.22,0,0,1,10.1-42.42l.94-.51A81.06,81.06,0,0,1,123.52,228.1q12.31,19.72,23.4,40.19A1681.48,1681.48,0,0,1,357.15,27.88,102,102,0,0,1,451.53,3C467.42,6.86,473.22,26.49,462.21,38.58Z"/></g></g></svg>