<svg xmlns="http://www.w3.org/2000/svg" viewBox="0 0 23.6 27.43"><g id="레이어_2" data-name="레이어 2"><g id="ELEMENTS"><path d="M18,12.55l.36.16a7,7,0,0,1,3.54,3.51,7.41,7.41,0,0,1-1.74,8.18c-2.06,2.07-4.58,3-8.14,3h0c-4,0-7.09-1.38-9.16-4C1,21.07,0,17.81,0,13.73v0H0C0,9.61,1,6.35,2.82,4,4.9,1.38,8,0,12,0h0c4,0,7.13,1.37,9.27,4A12.57,12.57,0,0,1,23.6,8.66l-2.31.62a10,10,0,0,0-1.84-3.74c-1.67-2-4.17-3.1-7.45-3.12S6.28,3.5,4.67,5.53s-2.27,4.66-2.3,8.18S3.18,20,4.67,21.9,8.74,25,12,25c2.93,0,4.88-.72,6.49-2.33a5,5,0,0,0,1.22-5.48,4.25,4.25,0,0,0-1.82-2,7.55,7.55,0,0,1-1.41,3.7,5.36,5.36,0,0,1-4.15,2A6,6,0,0,1,8.68,20a4.25,4.25,0,0,1-2-3.39c-.14-2.76,2-4.74,5.44-4.93a14.9,14.9,0,0,1,3.38.16,4,4,0,0,0-.84-2,3.29,3.29,0,0,0-2.63-1h0a3.48,3.48,0,0,0-3,1.5L7,9a5.77,5.77,0,0,1,5-2.57h.05c3.57,0,5.7,2.25,5.92,6.15ZM9.08,16.48c.08,1.43,1.63,2.1,3.12,2s3.12-.65,3.4-4.18a11.3,11.3,0,0,0-2.48-.26c-.27,0-.55,0-.82,0-2.45.13-3.27,1.32-3.21,2.39Z"/></g></g></svg>